<?xml version="1.0" standalone="no"?>
<!DOCTYPE svg PUBLIC "-//W3C//DTD SVG 20010904//EN"
 "http://www.w3.org/TR/2001/REC-SVG-20010904/DTD/svg10.dtd">
<svg version="1.0" xmlns="http://www.w3.org/2000/svg"
 width="653.000000pt" height="653.000000pt" viewBox="0 0 653.000000 653.000000"
 preserveAspectRatio="xMidYMid meet">
<metadata>
Created by potrace 1.11, written by Peter Selinger 2001-2013
</metadata>
<g transform="translate(0.000000,653.000000) scale(0.100000,-0.100000)"
fill="#000000" stroke="none">
<path d="M5619 4156 c-2 -2 -55 -7 -117 -11 -62 -3 -122 -8 -135 -10 -12 -2
-58 -9 -102 -15 -300 -43 -555 -163 -676 -320 -53 -67 -85 -129 -113 -211 -37
-110 -38 -120 -42 -299 -3 -136 0 -180 16 -252 41 -187 139 -337 286 -438 117
-82 324 -155 519 -186 28 -4 57 -9 65 -10 69 -14 214 -19 500 -19 346 0 426 4
545 30 39 8 84 18 100 21 69 11 65 3 65 145 l0 131 -27 -6 c-63 -14 -80 -16
-243 -32 -93 -9 -478 -11 -550 -3 -402 44 -584 247 -574 639 8 296 122 463
370 544 128 42 209 49 521 43 159 -3 297 -7 308 -10 11 -2 52 -8 92 -12 l71
-7 -2 113 -2 113 -89 17 c-50 10 -115 21 -145 24 -30 4 -66 9 -80 12 -27 6
-556 14 -561 9z"/>
<path d="M0 3269 l0 -829 160 0 160 0 0 313 c1 171 1 440 2 596 l2 283 30 -34
c17 -18 56 -62 86 -97 30 -36 60 -69 65 -75 6 -6 35 -40 65 -76 30 -36 72 -85
95 -110 22 -25 67 -77 100 -115 295 -341 542 -596 599 -620 44 -19 106 -31
201 -40 38 -4 78 -9 90 -12 11 -2 118 -7 238 -10 l217 -5 0 829 0 829 -152 0
c-99 0 -156 -3 -160 -10 -4 -6 -7 -281 -8 -610 0 -330 -2 -602 -5 -604 -3 -3
-13 4 -22 15 -42 49 -115 134 -173 203 -35 41 -68 80 -74 85 -6 6 -33 37 -60
70 -28 33 -57 67 -65 76 -9 9 -38 42 -66 74 -302 352 -556 614 -629 650 -72
34 -164 43 -483 50 l-213 4 0 -830z"/>
<path d="M2377 4085 c-6 -16 1 -1151 7 -1230 5 -71 21 -126 51 -184 21 -41 93
-114 133 -135 27 -14 185 -61 217 -64 15 -2 85 -12 130 -18 22 -3 346 -8 721
-11 l681 -5 -2 123 c-1 68 -3 126 -4 129 0 3 -250 6 -554 7 -637 3 -613 0
-667 86 l-32 52 -3 176 c-3 175 -3 177 18 181 12 2 268 3 570 3 l547 -1 0 123
0 123 -568 0 -569 0 0 200 -1 200 26 1 c15 0 286 0 602 0 316 0 582 2 591 5
13 4 15 22 14 122 -2 64 -3 119 -4 122 -2 11 -1900 6 -1904 -5z"/>
</g>
</svg>
